<svg width="25" height="18" viewBox="0 0 25 18" fill="none" xmlns="http://www.w3.org/2000/svg">
<g id="Group">
<path id="Vector" d="M20.0285 0H4.97147C2.23014 0 0 2.19241 0 4.88721V13.1128C0 15.8076 2.23014 18 4.97147 18H20.0285C22.7698 18 25 15.8076 25 13.1128V4.88721C25 2.19241 22.7698 0 20.0285 0ZM23.9796 13.1128C23.9796 15.2561 22.2071 17 20.0285 17H4.97147C2.7929 17 1.02041 15.2561 1.02041 13.1128V4.88721C1.02041 2.74391 2.7929 1 4.97147 1H20.0285C22.2071 1 23.9796 2.74391 23.9796 4.88721V13.1128Z" fill="white" fill-opacity="0.8"/>
<path id="Vector_2" d="M17.0206 8.81893L9.95171 4.76128C9.79477 4.67123 9.59897 4.66973 9.44023 4.75888C9.28156 4.84798 9.18366 5.01348 9.18366 5.19268V13.307C9.18366 13.4862 9.28156 13.6517 9.43998 13.7408C9.5187 13.785 9.6064 13.807 9.69387 13.807C9.78304 13.807 9.87197 13.784 9.95171 13.7384L17.0206 9.68173C17.1768 9.59213 17.2729 9.42782 17.2729 9.25032C17.2729 9.07282 17.177 8.90853 17.0206 8.81893ZM10.2041 12.4346V6.06503L15.753 9.25032L10.2041 12.4346Z" fill="white" fill-opacity="0.8"/>
</g>
</svg>
