<svg width="22" height="22" viewBox="0 0 22 22" fill="none" xmlns="http://www.w3.org/2000/svg">
<g id="letter_icon-icons.com_67753">
<path id="Vector" d="M0 3.1167V3.95673V18.0433V18.8834H22V18.0433V3.95673V3.1167H0ZM13.4292 11.2068L11.4323 13.2132C11.1896 13.4387 10.8097 13.4384 10.5772 13.2228L8.57047 11.2068L8.58807 11.1896L1.33723 3.85003H20.6675L13.4116 11.19L13.4292 11.2068ZM7.52547 11.1955L0.733333 17.7302V4.3718L7.52547 11.1955ZM8.04247 11.715L10.0676 13.7497C10.3275 13.992 10.6612 14.1138 10.9963 14.1138C11.3348 14.1138 11.6747 13.9895 11.9427 13.7398L13.9579 11.715L20.6448 18.15H1.35153L8.04247 11.715ZM14.4749 11.1958L21.2667 4.37143V17.7302L14.4749 11.1958Z" fill="white" fill-opacity="0.4"/>
</g>
</svg>
