<svg width="22" height="16" viewBox="0 0 22 16" fill="none" xmlns="http://www.w3.org/2000/svg">
<path id="Vector" d="M0 0.116699V0.956733V15.0433V15.8834H22V15.0433V0.956733V0.116699H0ZM13.4292 8.20683L11.4323 10.2132C11.1896 10.4387 10.8097 10.4384 10.5772 10.2228L8.57047 8.20683L8.58807 8.1896L1.33723 0.850033H20.6675L13.4116 8.18997L13.4292 8.20683ZM7.52547 8.19547L0.733333 14.7302V1.3718L7.52547 8.19547ZM8.04247 8.71503L10.0676 10.7497C10.3275 10.992 10.6612 11.1138 10.9963 11.1138C11.3348 11.1138 11.6747 10.9895 11.9427 10.7398L13.9579 8.71503L20.6448 15.15H1.35153L8.04247 8.71503ZM14.4749 8.19583L21.2667 1.37143V14.7302L14.4749 8.19583Z" fill="white" fill-opacity="0.4"/>
</svg>
