<svg height="480pt" viewBox="0 0 480 480" width="480pt" xmlns="http://www.w3.org/2000/svg"><path d="m118.03125 317.390625c11.355469-9.089844 17.964844-22.84375 17.96875-37.390625v-12.449219c9.867188-5.671875 15.964844-16.171875 16-27.550781v-40c0-4.417969-3.582031-8-8-8s-8 3.582031-8 8c0 8.835938-7.164062 16-16 16h-48c-17.671875 0-32 14.328125-32 32v32c.003906 14.546875 6.613281 28.300781 17.96875 37.390625-34.75 12.636719-57.9023438 45.632813-57.96875 82.609375v72c0 4.417969 3.582031 8 8 8h160c4.417969 0 8-3.582031 8-8v-72c-.066406-36.976562-23.21875-69.972656-57.96875-82.609375zm-62.03125-69.390625c0-8.835938 7.164062-16 16-16h48c5.621094.007812 11.140625-1.476562 16-4.296875v12.296875c0 8.835938-7.164062 16-16 16h-64zm0 32v-8h64v8c0 17.671875-14.328125 32-32 32s-32-14.328125-32-32zm104 184h-144v-64c0-39.765625 32.234375-72 72-72s72 32.234375 72 72zm0 0"/><path d="m376 160c0 4.417969 3.582031 8 8 8s8-3.582031 8-8v-128c0-17.671875-14.328125-32-32-32h-112c-17.671875 0-32 14.328125-32 32h-96c-17.671875 0-32 14.328125-32 32v128c0 4.417969 3.582031 8 8 8s8-3.582031 8-8c0-8.835938 7.164062-16 16-16h112c17.671875 0 32-14.328125 32-32h96c8.835938 0 16 7.164062 16 16zm-144-128c0-8.835938 7.164062-16 16-16h112c8.835938 0 16 7.164062 16 16v100.296875c-4.859375-2.820313-10.378906-4.304687-16-4.296875h-112c-8.835938 0-16-7.164062-16-16zm0 128h-112c-5.621094-.007812-11.140625 1.476562-16 4.296875v-100.296875c0-8.835938 7.164062-16 16-16h96v64c0 17.671875 14.328125 32 32 32 0 8.835938-7.164062 16-16 16zm0 0"/><path d="m152 96h16v16h-16zm0 0"/><path d="m184 96h16v16h-16zm0 0"/><path d="m280 64h16v16h-16zm0 0"/><path d="m312 64h16v16h-16zm0 0"/><path d="m423.824219 318.046875c10.234375-8.339844 16.175781-20.84375 16.175781-34.046875v-36c0-17.671875-14.328125-32-32-32h-48c-8.835938 0-16-7.164062-16-16 0-4.417969-3.582031-8-8-8s-8 3.582031-8 8v40c.054688 14.546875 9.914062 27.226562 24 30.863281v13.136719c-.003906 12.125 5.011719 23.707031 13.855469 32-36.75 11.488281-61.792969 45.496094-61.855469 84v72c0 4.417969 3.582031 8 8 8h160c4.417969 0 8-3.582031 8-8v-72c-.058594-36.28125-22.359375-68.8125-56.175781-81.953125zm.175781-34.046875c0 15.464844-12.535156 28-28 28s-28-12.535156-28-28v-12h56zm-80-44v-12.296875c4.859375 2.820313 10.378906 4.304687 16 4.296875h48c8.835938 0 16 7.164062 16 16v8h-64c-8.835938 0-16-7.164062-16-16zm120 224h-144v-64c0-39.765625 32.234375-72 72-72s72 32.234375 72 72zm0 0"/><path d="m120 96h16v16h-16zm0 0"/><path d="m344 64h16v16h-16zm0 0"/><path d="m248 64h16v16h-16zm0 0"/></svg>