<svg height="480pt" viewBox="-31 0 479 480" width="480pt" xmlns="http://www.w3.org/2000/svg"><path d="m376.5 0h-304c-22.082031.0273438-39.972656 17.917969-40 40v180.3125l-28.753906 21.289062c-.078125.054688-.101563.152344-.175782.214844-.84375.664063-1.546874 1.496094-2.0625 2.441406-.097656.167969-.152343.34375-.230468.519532-.484375 1.007812-.75 2.105468-.777344 3.222656v224.152344c.023438.28125.066406.5625.121094.839844.046875.507812.144531 1.007812.285156 1.496093 0 .070313 0 .144531.042969.214844.078125.226563.230469.402344.335937.617187.191406.4375.421875.859376.6875 1.253907.644532.929687 1.488282 1.695312 2.472656 2.25.214844.128906.390626.304687.621094.414062.234375.113281.25 0 .371094.082031.964844.429688 2.003906.660157 3.0625.679688h368c1.046875-.023438 2.082031-.253906 3.039062-.679688.121094-.046874.25 0 .367188-.082031.121094-.078125.410156-.277343.625-.414062.953125-.59375 1.792969-1.355469 2.472656-2.25.265625-.394531.496094-.816407.6875-1.253907.097656-.214843.257813-.382812.335938-.617187 0-.070313 0-.144531.039062-.214844.144532-.488281.242188-.988281.289063-1.496093.0625-.277344.113281-.558594.144531-.839844v-224.152344c-.03125-1.128906-.304688-2.242188-.800781-3.257812-.078125-.175782-.136719-.34375-.230469-.519532-.515625-.945312-1.21875-1.773437-2.066406-2.4375-.070313-.058594-.101563-.160156-.175782-.21875l-28.726562-21.253906v-156.3125h56c4.417969 0 8-3.582031 8-8v-16c-.027344-22.082031-17.917969-39.9726562-40-40zm-328 40c0-13.253906 10.746094-24 24-24h272c-.230469.304688-.398438.664062-.625.976562-.472656.664063-.878906 1.367188-1.3125 2.0625-.835938 1.339844-1.589844 2.730469-2.261719 4.160157-.367187.800781-.710937 1.601562-1.03125 2.402343-.589843 1.546876-1.082031 3.132813-1.472656 4.742188-.191406.761719-.425781 1.488281-.570313 2.257812-.472656 2.4375-.714843 4.914063-.726562 7.398438v227.617188l-46.574219 34.398437-56.265625 41.601563-36.070312-29.792969c-2.957032-2.441407-7.230469-2.441407-10.1875 0l-36.070313 29.792969-56.265625-41.601563-46.566406-34.398437zm320 223.863281v191.152344l-103.121094-85.183594-19.007812-15.703125 102.882812-76.039062zm-248.878906 105.96875-103.121094 85.183594v-191.152344l19.246094 14.226563 102.882812 76.039062zm-87.121094-129.625v15.585938l-3.609375-2.671875-6.925781-5.121094zm-1.753906 223.792969 99.058594-81.832031 26.894531-22.222657 35.800781-29.546874 35.800781 29.601562 26.894531 22.222656 99.058594 81.777344zm325.363281-210.878906-3.609375 2.671875v-15.585938l10.535156 7.792969zm44.390625-205.121094h-48v-8c0-13.253906 10.746094-24 24-24s24 10.746094 24 24zm0 0"/><path d="m144.5 48h96v16h-96zm0 0"/><path d="m112.5 80h160v16h-160zm0 0"/><path d="m64.5 112h64v16h-64zm0 0"/><path d="m96.5 144h224v16h-224zm0 0"/><path d="m64.5 176h256v16h-256zm0 0"/><path d="m64.5 208h256v16h-256zm0 0"/><path d="m64.5 240h208v16h-208zm0 0"/><path d="m224.5 272h64v16h-64zm0 0"/></svg>