<svg height="480pt" viewBox="0 0 480 480.29807" width="480pt" xmlns="http://www.w3.org/2000/svg"><path d="m440.148438 280.238281c21.050781-.003906 38.492187-16.320312 39.902343-37.320312 1.410157-21.003907-13.699219-39.503907-34.558593-42.320313-20.859376-2.8125-40.332032 11.019532-44.542969 31.640625h-97.351563c-1.425781-11.375-5.902344-22.15625-12.953125-31.199219l127.480469-127.464843c17.179688 11.371093 40.179688 7.882812 53.210938-8.070313 13.035156-15.953125 11.867187-39.1875-2.699219-53.753906-14.566407-14.566406-37.796875-15.734375-53.753907-2.699219-15.953124 13.035157-19.441406 36.035157-8.070312 53.210938l-127.464844 127.480469c-23.023437-18.027344-55.375-18.027344-78.398437 0l-71.480469-71.480469c7.742188-11.542969 8.8125-26.320313 2.816406-38.863281l19.695313-19.695313c4.882812 2.941406 10.46875 4.507813 16.167969 4.535156 17.671874 0 32-14.324219 32-32 0-17.671875-14.328126-32-32-32-17.671876 0-32 14.328125-32 32 .03125 5.695313 1.597656 11.277344 4.535156 16.152344l-18.078125 18.082031c-15.488281-13.757812-38.925781-13.382812-53.964844.863282-15.039063 14.246093-16.683594 37.632812-3.78125 53.839843 12.898437 16.210938 36.054687 19.859375 53.3125 8.398438l71.480469 71.464843c-7.050782 9.042969-11.523438 19.824219-12.953125 31.199219h-41.6875c-4.011719-15.585937-18.992188-25.75-34.957031-23.71875-15.964844 2.03125-27.925782 15.625-27.90625 31.71875.03125 5.695313 1.597656 11.277344 4.535156 16.152344l-28.382813 28.386719c-4.878906-2.9375-10.457031-4.507813-16.152343-4.539063-17.671876 0-32 14.328125-32 32 0 17.675781 14.328124 32 32 32 17.671874 0 32-14.324219 32-32-.03125-5.691406-1.597657-11.273437-4.535157-16.152343l28.375-28.375c4.882813 2.9375 10.464844 4.5 16.160157 4.527343 14.546874-.054687 27.226562-9.914062 30.863281-24h41.6875c3.691406 28.960938 26.492187 51.761719 55.449219 55.449219v81.273438c-24.117188 4.042968-41.339844 25.578124-39.984376 49.996093 1.355469 24.417969 20.851563 43.914063 45.269532 45.265625 24.417968 1.355469 45.949218-15.863281 49.996094-39.984375h129.855468c4.027344 15.605469 19.03125 25.777344 35.015625 23.746094s27.96875-15.628906 27.96875-31.746094c0-16.113281-11.984375-29.714843-27.96875-31.742187-15.984375-2.03125-30.988281 8.140625-35.015625 23.742187h-129.855468c-3.429688-20.101562-19.175782-35.851562-39.28125-39.277343v-81.273438c28.957031-3.6875 51.757812-26.488281 55.449218-55.449219h97.351563c1.03125 5.007813 3.019531 9.769531 5.855469 14.023438l-46.511719 46.515625c-4.875-2.9375-10.453125-4.503906-16.144531-4.539063-17.671876 0-32 14.328125-32 32 0 17.675781 14.328124 32 32 32 17.671874 0 32-14.324219 32-32-.03125-5.691406-1.597657-11.273437-4.535157-16.152343l46.511719-46.511719c6.523438 4.347656 14.1875 6.664062 22.023438 6.664062zm-408 48c-8.835938 0-16-7.164062-16-16 0-8.835937 7.164062-16 16-16 8.835937 0 16 7.164063 16 16 0 8.835938-7.164063 16-16 16zm72-72c-8.835938 0-16-7.164062-16-16 0-8.835937 7.164062-16 16-16 8.835937 0 16 7.164063 16 16 0 8.835938-7.164063 16-16 16zm344 160c8.835937 0 16 7.164063 16 16 0 8.835938-7.164063 16-16 16-8.835938 0-16-7.164062-16-16 0-8.835937 7.164062-16 16-16zm-8-200c13.253906 0 24 10.746094 24 24 0 13.257813-10.746094 24-24 24-13.253907 0-24-10.742187-24-24 0-13.253906 10.746093-24 24-24zm0-200c13.253906 0 24 10.746094 24 24 0 13.257813-10.746094 24-24 24-13.253907 0-24-10.742187-24-24 0-13.253906 10.746093-24 24-24zm-272 0c8.835937 0 16 7.164063 16 16 0 8.835938-7.164063 16-16 16-8.835938 0-16-7.164062-16-16 0-8.835937 7.164062-16 16-16zm-72 104c-13.253907 0-24-10.742187-24-24 0-13.253906 10.746093-24 24-24 13.253906 0 24 10.746094 24 24 0 13.257813-10.746094 24-24 24zm176 312c0 17.675781-14.328126 32-32 32-17.671876 0-32-14.324219-32-32 0-17.671875 14.328124-32 32-32 17.671874 0 32 14.328125 32 32zm-32-144c-26.507813 0-48-21.488281-48-48 0-26.507812 21.492187-48 48-48 26.511718 0 48 21.492188 48 48-.03125 26.5-21.503907 47.96875-48 48zm104 64c-8.835938 0-16-7.164062-16-16 0-8.835937 7.164062-16 16-16 8.835937 0 16 7.164063 16 16 0 8.835938-7.164063 16-16 16zm0 0"/></svg>