<svg height="480pt" viewBox="0 -112 480 480" width="480pt" xmlns="http://www.w3.org/2000/svg"><path d="m32 104h16v16h-16zm0 0"/><path d="m400 0v16h-39.015625l-52.59375-13.144531c-8.480469-2.121094-17.421875-1.402344-25.453125 2.039062l-42.335938 18.136719-24.601562-14.75c-9.5-5.679688-20.921875-7.1875-31.566406-4.167969l-41.554688 11.886719h-62.878906v-16h-80v152h80v-16h28.6875l3.632812 3.632812c-.1875 1.125-.296874 2.257813-.320312 3.398438.03125 13.421875 10.671875 24.417969 24.089844 24.878906.464844 13.058594 10.941406 23.535156 24 24 .464844 13.058594 10.941406 23.535156 24 24 .460937 13.417969 11.457031 24.058594 24.878906 24.089844 1.140625-.023438 2.273438-.132812 3.398438-.320312l9.007812 9.007812c6.160156 6.160156 15.085938 8.660156 23.550781 6.605469 8.464844-2.054688 15.246094-8.371094 17.898438-16.667969 6.363281 2.199219 13.34375 1.742188 19.367187-1.265625 6.023438-3.011719 10.574219-8.324219 12.632813-14.734375 7.476562 2.59375 15.742187 1.496094 22.28125-2.964844 6.539062-4.460937 10.578125-11.75 10.894531-19.660156 9.917969-.375 18.675781-6.59375 22.296875-15.835938 3.625-9.242187 1.429687-19.753906-5.59375-26.773437l-5.390625-5.390625 16-16h44.6875v16h80v-152zm-384 136v-120h48v120zm112.609375 3.929688c.429687-1.199219 1.113281-2.292969 2.007813-3.203126l6.0625-6.0625c2.558593-2.566406 6.414062-3.34375 9.765624-1.960937 3.351563 1.378906 5.542969 4.640625 5.554688 8.265625-.007812 2.375-.949219 4.65625-2.625 6.34375l-6.0625 6.0625c-.914062.890625-2.003906 1.578125-3.199219 2.015625-3.277343 1.289063-7 .511719-9.488281-1.976563-2.488281-2.484374-3.269531-6.210937-1.984375-9.484374zm24 24c.433594-1.199219 1.117187-2.289063 2.007813-3.203126l14.0625-14.0625c2.558593-2.566406 6.414062-3.34375 9.765624-1.960937 3.351563 1.378906 5.542969 4.640625 5.554688 8.265625-.007812 2.375-.949219 4.65625-2.625 6.34375l-14.0625 14.0625c-.914062.890625-2.003906 1.578125-3.199219 2.015625-3.277343 1.289063-7 .511719-9.488281-1.976563-2.488281-2.484374-3.269531-6.210937-1.984375-9.484374zm24 24c.433594-1.199219 1.117187-2.289063 2.007813-3.203126l22.0625-22.0625c2.558593-2.566406 6.414062-3.34375 9.765624-1.960937 3.351563 1.378906 5.542969 4.640625 5.554688 8.265625-.007812 2.375-.949219 4.65625-2.625 6.34375l-22.0625 22.0625c-.914062.890625-2.003906 1.578125-3.199219 2.015625-3.277343 1.289063-7 .511719-9.488281-1.976563-2.488281-2.484374-3.269531-6.210937-1.984375-9.484374zm24 24c.433594-1.199219 1.117187-2.289063 2.007813-3.203126l14.0625-14.0625c2.558593-2.566406 6.414062-3.34375 9.765624-1.960937 3.351563 1.378906 5.542969 4.640625 5.554688 8.265625-.007812 2.375-.949219 4.65625-2.625 6.34375l-14.0625 14.0625c-.914062.890625-2.003906 1.578125-3.199219 2.015625-3.277343 1.289063-7 .511719-9.488281-1.976563-2.488281-2.484374-3.269531-6.210937-1.984375-9.484374zm38.421875 28.070312c-2.378906.007812-4.664062-.9375-6.34375-2.625l-5.375-5.375 12.6875-12.6875 5.375 5.375c2.566406 2.566406 3.335938 6.425781 1.949219 9.777344-1.390625 3.351562-4.664063 5.539062-8.292969 5.535156zm94.34375-71.3125c2.566406 2.566406 3.335938 6.425781 1.949219 9.777344-1.390625 3.351562-4.664063 5.539062-8.292969 5.535156-2.378906.007812-4.664062-.9375-6.34375-2.625l-27.03125-27.03125-11.3125 11.3125 27.03125 27.03125c2.566406 2.566406 3.335938 6.425781 1.949219 9.777344-1.390625 3.351562-4.664063 5.539062-8.292969 5.535156-2.378906.007812-4.664062-.9375-6.34375-2.625l-27.03125-27.03125-11.3125 11.3125 19.03125 19.03125c2.566406 2.566406 3.335938 6.425781 1.949219 9.777344-1.390625 3.351562-4.664063 5.539062-8.292969 5.535156-2.378906.007812-4.664062-.9375-6.34375-2.625l-16.933594-16.933594c.164063-1.152344.246094-2.3125.246094-3.472656-.011719-1.554688-.164062-3.101562-.464844-4.625-.085937-.472656-.230468-.910156-.34375-1.375-.25-1.007812-.5625-2-.933594-2.96875-.195312-.488281-.402343-.96875-.617187-1.441406-.429687-.917969-.917969-1.8125-1.457031-2.671875-.246094-.40625-.488282-.796875-.757813-1.207031-.726562-1.046876-1.527343-2.035157-2.402343-2.960938-.128907-.132812-.230469-.285156-.367188-.421875-1.050781-1.035156-2.1875-1.972656-3.398438-2.808594-.335937-.230469-.699218-.417969-1.050781-.632812-.910156-.574219-1.855469-1.085938-2.832031-1.535157-.472656-.214843-.941406-.398437-1.429688-.585937-.488281-.183594-.855468-.390625-1.3125-.535156.246094-.71875.382813-1.480469.574219-2.214844.121094-.480469.28125-.945313.367188-1.433594.285156-1.511719.429687-3.042969.425781-4.582031.035156-7.433594-3.261719-14.492188-8.984375-19.242188-5.722656-4.746093-13.265625-6.683593-20.566406-5.277343-.488281.085937-.960938.246093-1.441407.367187-.734374.183594-1.480468.3125-2.191406.558594-.144531-.445312-.359375-.847656-.527344-1.285156-.167968-.441406-.378906-.976563-.59375-1.449219-.441406-.953125-.945312-1.875-1.503906-2.761719-.230468-.367187-.429687-.757812-.679687-1.109375-.828125-1.203125-1.757813-2.328125-2.785157-3.371093-.160156-.160157-.34375-.285157-.503906-.4375-.894531-.871094-1.855468-1.671876-2.871094-2.402344-.398437-.285156-.800781-.527344-1.246093-.796875-.847657-.53125-1.726563-1.011719-2.632813-1.433594-.488281-.222656-.96875-.433594-1.472656-.632813-.964844-.367187-1.953125-.675781-2.960938-.917968-.472656-.121094-.917968-.257813-1.398437-.351563-1.519531-.285156-3.0625-.429687-4.609375-.425781-1.539062.007812-3.070312.160156-4.582031.449219-.488281.085937-.960938.246093-1.441407.367187-.734374.183594-1.480468.3125-2.191406.558594-.144531-.445312-.359375-.847656-.527344-1.285156-.167968-.441406-.378906-.976563-.59375-1.449219-.441406-.953125-.945312-1.875-1.503906-2.761719-.230468-.367187-.429687-.757812-.679687-1.109375-.828125-1.203125-1.757813-2.328125-2.785157-3.371093-.160156-.160157-.34375-.285157-.503906-.4375-.894531-.871094-1.855468-1.671876-2.871094-2.402344-.398437-.285156-.800781-.527344-1.246093-.796875-.847657-.53125-1.726563-1.011719-2.632813-1.433594-.488281-.222656-.96875-.433594-1.472656-.632813-.964844-.367187-1.953125-.675781-2.960938-.917968-.472656-.121094-.917968-.257813-1.398437-.351563-8.105469-1.605469-16.46875.96875-22.273437 6.847657l-5.367188 5.414062-4.6875-4.6875h-35.3125v-88h64l44.839844-12.496094c6.386718-1.824218 13.246094-.921875 18.945312 2.496094l19.3125 11.601562-36.066406 36.070313c-4.511719 4.484375-7.042969 10.589844-7.03125 16.953125v17.375c0 13.253906 10.746094 24 24 24s24-10.746094 24-24c-.007812-3 1.183594-5.882812 3.3125-8l12.6875-12.6875zm15.3125-48.6875-20.6875 20.6875-47.464844-47.464844c13.9375-.113281 27.269532-5.707031 37.121094-15.566406l8-8-11.3125-11.3125-8 8c-14.554688 14.53125-38.132812 14.53125-52.6875 0l-5.65625-5.65625-24 24c-5.132812 5.117188-8.011719 12.066406-8 19.3125 0 4.417969-3.582031 8-8 8s-8-3.582031-8-8v-17.375c.007812-2.121094.851562-4.152344 2.34375-5.65625l38.734375-38.738281 3.488281-3.488281 44.679688-19.148438c4.824218-2.050781 10.179687-2.480469 15.265625-1.226562l53.542969 13.386718 41.945312.246094v88zm115.3125 8v8h-48v-120h48zm0 0"/><path d="m432 104h16v16h-16zm0 0"/></svg>