<svg width="27" height="27" viewBox="0 0 27 27" fill="none" xmlns="http://www.w3.org/2000/svg">
<g clip-path="url(#clip0)">
<path d="M23.976 4.99711C23.9275 4.93594 23.8769 4.87477 23.8241 4.81359C22.5809 3.33071 21.0324 2.13343 19.2844 1.30345C17.5363 0.473471 15.6298 0.0303158 13.6949 0.00421875C13.6295 0.00210937 13.5662 0 13.5008 0C13.4355 0 13.3722 0.00210937 13.3068 0.00421875C11.3646 0.0305698 9.45114 0.477098 7.6979 1.31312C5.94466 2.14914 4.3932 3.35483 3.15014 4.84734C3.11472 4.8854 3.08162 4.92555 3.051 4.96758C3.04943 4.97075 3.04728 4.97361 3.04468 4.97602C1.07642 7.38072 0.00100708 10.3925 0.00100708 13.5C0.00100708 16.6075 1.07642 19.6193 3.04468 22.024C3.04728 22.0264 3.04943 22.0292 3.051 22.0324C3.08162 22.0744 3.11473 22.1146 3.15014 22.1527L3.15225 22.1548C4.39516 23.6468 5.94634 24.852 7.69921 25.6876C9.45208 26.5233 11.3651 26.9696 13.3068 26.9958C13.4363 27 13.5654 27 13.6949 26.9958C15.6298 26.9697 17.5363 26.5265 19.2844 25.6965C21.0324 24.8666 22.5809 23.6693 23.8241 22.1864C23.8769 22.1252 23.9275 22.0641 23.976 22.0029C25.9325 19.601 27.0009 16.5979 27.0009 13.5C27.0009 10.4021 25.9325 7.39899 23.976 4.99711ZM20.987 13.1309C20.9661 11.1305 20.6774 9.14197 20.1285 7.21828C21.3302 6.83904 22.478 6.30662 23.5436 5.63414C25.2297 7.77674 26.1809 10.4054 26.2562 13.1309H20.987ZM13.87 0.757266C16.1249 0.989297 18.0866 3.31805 19.2194 6.7268C17.4757 7.20537 15.678 7.45914 13.87 7.48195V0.757266ZM13.1317 7.48195C11.3237 7.45914 9.52601 7.20537 7.78233 6.7268C8.91507 3.31805 10.8768 0.989297 13.1317 0.757266V7.48195ZM13.1317 8.22023V13.1309H6.75296C6.77309 11.2037 7.04612 9.28745 7.56507 7.43133C9.37917 7.9316 11.25 8.19674 13.1317 8.22023ZM13.1317 13.8691V18.7798C11.25 18.8033 9.37917 19.0684 7.56507 19.5687C7.04612 17.7125 6.77309 15.7963 6.75296 13.8691H13.1317ZM13.1317 19.518V26.2427C10.8768 26.0107 8.91507 23.682 7.78233 20.2732C9.52601 19.7946 11.3237 19.5409 13.1317 19.518ZM13.87 19.518C15.678 19.5409 17.4757 19.7946 19.2194 20.2732C18.0866 23.682 16.1249 26.0107 13.87 26.2427V19.518ZM13.87 18.7798V13.8691H20.2487C20.2286 15.797 19.9556 17.7139 19.4366 19.5708C17.623 19.0679 15.7519 18.802 13.87 18.7798ZM13.87 13.1309V8.22023C15.7519 8.198 17.623 7.93212 19.4366 7.42922C19.9556 9.28606 20.2286 11.203 20.2487 13.1309H13.87ZM23.0669 5.06039C22.0785 5.67616 21.017 6.16582 19.907 6.51797C19.097 4.10906 17.8799 2.19375 16.4308 1.07789C19.0012 1.68777 21.3195 3.07906 23.0669 5.06039ZM10.5709 1.07789C9.12179 2.19375 7.90468 4.10906 7.09468 6.51797C5.9855 6.16473 4.92418 5.67588 3.93483 5.0625C5.68112 3.07945 7.99979 1.68721 10.5709 1.07789ZM3.45811 5.63203C4.52356 6.3059 5.67136 6.83975 6.87319 7.22039C6.32417 9.14333 6.03543 11.1312 6.01468 13.1309H0.745456C0.820821 10.4048 1.77198 7.77542 3.45811 5.63203ZM6.01468 13.8691C6.03542 15.8688 6.32417 17.8567 6.87319 19.7796V19.7817C5.67111 20.1608 4.52319 20.694 3.45811 21.368C1.77198 19.2246 0.820821 16.5952 0.745456 13.8691H6.01468ZM3.93483 21.9375C4.92418 21.3241 5.9855 20.8353 7.09468 20.482C7.90468 22.8909 9.12179 24.8062 10.5709 25.9221C7.9998 25.3128 5.68113 23.9205 3.93483 21.9375ZM16.4308 25.9221C17.8799 24.8062 19.097 22.8909 19.907 20.482C21.017 20.8342 22.0785 21.3238 23.0669 21.9396C21.3195 23.9209 19.0012 25.3122 16.4308 25.9221ZM23.5436 21.3659C22.478 20.6934 21.3302 20.161 20.1285 19.7817C20.6774 17.858 20.9661 15.8695 20.987 13.8691H26.2562C26.1809 16.5946 25.2297 19.2233 23.5436 21.3659Z" fill="#2A2C33"/>
</g>
<defs>
<clipPath id="clip0">
<rect width="27" height="27" fill="white"/>
</clipPath>
</defs>
</svg>
