<svg width="26" height="27" viewBox="0 0 26 27" fill="none" xmlns="http://www.w3.org/2000/svg">
<g clip-path="url(#clip0)">
<path d="M25.3177 20.8291L20.0552 17.1846C19.3874 16.7258 18.4922 16.8768 17.9984 17.5315L16.4655 19.5782C16.2685 19.848 15.9104 19.9262 15.6254 19.7618L15.3338 19.5949C14.3672 19.0478 13.1645 18.3666 10.7412 15.8492C8.31793 13.3318 7.66066 12.0819 7.13378 11.0799L6.9739 10.7771C6.8134 10.4812 6.88733 10.1078 7.14719 9.90155L9.1168 8.31016C9.747 7.79739 9.89257 6.86803 9.4513 6.17431L5.94182 0.709414C5.48958 0.00298329 4.58225 -0.209083 3.88213 0.227967L1.68155 1.6007C0.990112 2.02283 0.482832 2.70648 0.266079 3.5084C-0.526347 6.50675 0.0697869 11.6814 7.41024 19.3051C13.2494 25.3684 17.5964 26.999 20.5842 26.999C21.2719 27.002 21.9568 26.9091 22.6206 26.7227C23.393 26.4979 24.0514 25.9711 24.4577 25.2528L25.7809 22.969C26.2024 22.2418 25.9983 21.299 25.3177 20.8291ZM25.0343 22.5073L23.7141 24.7925C23.4224 25.3109 22.9489 25.6921 22.3927 25.8562C19.7272 26.6161 15.0704 25.9867 8.02329 18.6685C0.976149 11.3503 0.370063 6.51487 1.10186 3.74646C1.26008 3.16816 1.62758 2.67574 2.12739 2.37236L4.32798 1.00141C4.63175 0.811598 5.02556 0.903605 5.2218 1.21016L7.1282 4.18241L8.72828 6.67458C8.9199 6.97549 8.85694 7.37879 8.58358 7.60146L6.6135 9.19285C6.01397 9.66892 5.84276 10.5303 6.21188 11.214L6.36832 11.5091C6.92206 12.5638 7.6105 13.8758 10.1239 16.4854C12.6373 19.095 13.9003 19.81 14.9154 20.385L15.2001 20.5478C15.8583 20.9311 16.6879 20.7534 17.1463 20.1308L18.6788 18.0849C18.8932 17.8012 19.2814 17.7359 19.5713 17.9347L24.8333 21.5791C25.1287 21.7827 25.2174 22.1919 25.0343 22.5073Z" fill="#2A2C33"/>
<path d="M14.7325 4.50237C18.7985 4.50706 22.0936 7.92886 22.0981 12.1513C22.0981 12.3998 22.2921 12.6012 22.5314 12.6012C22.7707 12.6012 22.9646 12.3998 22.9646 12.1513C22.9596 7.43207 19.2769 3.60771 14.7325 3.60254C14.4932 3.60254 14.2993 3.80395 14.2993 4.05245C14.2993 4.30096 14.4932 4.50237 14.7325 4.50237Z" fill="#2A2C33"/>
<path d="M14.7325 7.20159C17.3634 7.20481 19.4954 9.41879 19.4985 12.1509C19.4985 12.3994 19.6925 12.6008 19.9318 12.6008C20.1711 12.6008 20.365 12.3994 20.365 12.1509C20.3614 8.922 17.8418 6.30545 14.7325 6.30176C14.4932 6.30176 14.2993 6.50317 14.2993 6.75167C14.2993 7.00017 14.4932 7.20159 14.7325 7.20159Z" fill="#2A2C33"/>
<path d="M14.7325 9.90081C15.9284 9.90228 16.8974 10.9086 16.8989 12.1505C16.8989 12.399 17.0929 12.6004 17.3321 12.6004C17.5714 12.6004 17.7654 12.399 17.7654 12.1505C17.7635 10.4119 16.4067 9.00293 14.7325 9.00098C14.4932 9.00098 14.2993 9.20239 14.2993 9.45089C14.2993 9.69939 14.4932 9.90081 14.7325 9.90081Z" fill="#2A2C33"/>
</g>
<defs>
<clipPath id="clip0">
<rect width="26" height="27" fill="white"/>
</clipPath>
</defs>
</svg>
