<svg height="480pt" viewBox="0 0 480 480" width="480pt" xmlns="http://www.w3.org/2000/svg"><path d="m264 48h96v16h-96zm0 0"/><path d="m184 80h176v16h-176zm0 0"/><path d="m96 112h64v16h-64zm0 0"/><path d="m128 144h240v16h-240zm0 0"/><path d="m96 176h272v16h-272zm0 0"/><path d="m96 208h272v16h-272zm0 0"/><path d="m96 240h224v16h-224zm0 0"/><path d="m456 64c4.417969 0 8-3.582031 8-8v-16c-.027344-22.082031-17.917969-39.9726562-40-40h-320c-22.082031.0273438-39.972656 17.917969-40 40v368h-56c-4.417969 0-8 3.582031-8 8v24c.0273438 22.082031 17.917969 39.972656 40 40h320c22.082031-.027344 39.972656-17.917969 40-40v-376zm-8-24v8h-48v-8c0-13.253906 10.746094-24 24-24s24 10.746094 24 24zm-432 400v-16h48v16c0 13.253906-10.746094 24-24 24s-24-10.746094-24-24zm368 0c0 13.253906-10.746094 24-24 24h-288c.230469-.304688.398438-.664062.625-.976562.472656-.664063.878906-1.359376 1.304688-2.054688.839843-1.347656 1.597656-2.742188 2.269531-4.175781.359375-.800781.710937-1.5625 1.023437-2.402344.597656-1.566406 1.089844-3.167969 1.480469-4.796875.183594-.753906.425781-1.480469.570313-2.25.46875-2.421875.710937-4.878906.726562-7.34375v-400c0-13.253906 10.746094-24 24-24h288c-.230469.304688-.398438.664062-.625.976562-.472656.664063-.878906 1.359376-1.304688 2.054688-.839843 1.347656-1.597656 2.742188-2.269531 4.175781-.359375.800781-.710937 1.5625-1.023437 2.402344-.597656 1.566406-1.089844 3.167969-1.480469 4.796875-.183594.753906-.425781 1.480469-.570313 2.25-.46875 2.421875-.710937 4.878906-.726562 7.34375zm0 0"/><path d="m472 80h-48c-4.417969 0-8 3.582031-8 8v344c.019531.9375.207031 1.863281.550781 2.734375.089844.234375.183594.449219.289063.664063.105468.21875.160156.464843.296875.679687l24 40c1.445312 2.410156 4.050781 3.886719 6.859375 3.886719s5.414062-1.476563 6.859375-3.886719l24-40c.128906-.214844.183593-.453125.296875-.679687.113281-.222657.199218-.429688.289062-.664063.34375-.871094.535156-1.796875.558594-2.734375v-344c0-4.417969-3.582031-8-8-8zm-40 64h8v64h16v-64h8v280h-32zm0-48h32v32h-32zm16 360.457031-9.871094-16.457031h19.742188zm0 0"/></svg>