<?xml version="1.0" ?><svg enable-background="new 0 0 196 144" id="youtube" version="1.1" viewBox="0 0 196 144" xml:space="preserve" xmlns="http://www.w3.org/2000/svg" xmlns:xlink="http://www.w3.org/1999/xlink"><g><path d="M157.0235,0H38.9763C17.4843,0,0,17.5393,0,39.0977v65.8048C0,126.4609,17.4843,144,38.9763,144h118.0472   C178.5155,144,196,126.4609,196,104.9025V39.0977C196,17.5393,178.5155,0,157.0235,0z M188,104.9025   C188,122.0489,174.1035,136,157.0235,136H38.9763C21.8963,136,8,122.0489,8,104.9025V39.0977C8,21.9513,21.8963,8,38.9763,8   h118.0472C174.1035,8,188,21.9513,188,39.0977V104.9025z"/><path d="M133.4415,70.5529l-55.42-32.4612c-1.2304-0.7204-2.7655-0.7324-4.01-0.0192C72.7675,38.7853,72,40.1093,72,41.5429   v64.9144c0,1.4336,0.7675,2.7576,2.0095,3.4704c0.6172,0.3536,1.3048,0.5296,1.9905,0.5296c0.6991,0,1.3963-0.1836,2.0215-0.5488   l55.42-32.4532c1.2244-0.7168,1.9785-2.0313,1.9785-3.4513C135.42,72.584,134.668,71.2697,133.4415,70.5529z M80,99.4785V48.5217   l43.504,25.4823L80,99.4785z"/></g></svg>